<?xml version="1.0" encoding="utf-8"?>
<!-- Generator: Adobe Illustrator 17.1.0, SVG Export Plug-In . SVG Version: 6.00 Build 0)  -->
<!DOCTYPE svg PUBLIC "-//W3C//DTD SVG 1.1//EN" "http://www.w3.org/Graphics/SVG/1.1/DTD/svg11.dtd">
<svg version="1.1" id="Layer_1" xmlns="http://www.w3.org/2000/svg" xmlns:xlink="http://www.w3.org/1999/xlink" x="0px" y="0px"
	 viewBox="0 0 32.9 28.6" enable-background="new 0 0 32.9 28.6" xml:space="preserve">
<path fill="#010101" d="M29.4,25.5c0-0.1,0.1-0.2,0.1-0.3h0c0.2-0.1,0.3-0.2,0.5-0.3c-0.1,0.2-0.3,0.4-0.4,0.5
	c-0.1,0-0.1,0.1-0.2,0.1C29.4,25.6,29.4,25.6,29.4,25.5z"/>
<path fill="#010101" d="M29.4,25.6c0.1,0,0.1-0.1,0.2-0.1C29.6,25.6,29.6,25.6,29.4,25.6C29.5,25.6,29.5,25.6,29.4,25.6z"/>
<path fill="#010101" d="M28.9,18c0.1,0.3,0,0.6,0,0.9C28.9,18.6,28.9,18.3,28.9,18z"/>
<path fill="#010101" d="M28.8,5.1c-0.1-0.1-0.1-0.2-0.2-0.3C28.7,4.9,28.8,4.9,28.8,5.1C28.8,5,28.8,5.1,28.8,5.1z"/>
<path fill="#010101" d="M28.6,4.8C28.6,4.8,28.7,4.8,28.6,4.8C28.6,4.8,28.6,4.8,28.6,4.8z"/>
<path fill="#010101" d="M28.5,14.2c-0.1-0.4-0.2-0.9-0.1-1.3c0,0,0,0,0,0C28.4,13.3,28.5,13.7,28.5,14.2z"/>
<path fill="#010101" d="M28.4,20.5c-0.1,0.1-0.1,0.2-0.2,0.3C28.2,20.7,28.2,20.7,28.4,20.5C28.3,20.5,28.3,20.5,28.4,20.5
	C28.4,20.5,28.4,20.5,28.4,20.5z"/>
<path fill="#010101" d="M28.3,17.1c0,0.1,0,0.2,0,0.3c0,0,0,0-0.1,0C28,17.3,28.1,17.1,28.3,17.1C28.3,17.1,28.3,17.1,28.3,17.1z"/>
<path fill="#010101" d="M28.5,25.7c-0.1,0.1-0.2,0.3-0.4,0.3c-0.1,0-0.2-0.1-0.1-0.2C28.2,25.8,28.3,25.7,28.5,25.7z"/>
<path fill="#010101" d="M26.9,16.2c0.1-0.1,0.2-0.1,0.3-0.2c0,0,0,0,0,0c0.2,0.1,0,0.4-0.2,0.3C27,16.2,27,16.2,26.9,16.2z"/>
<path fill="#010101" d="M27.2,3.1c-0.4-0.4-0.8-0.7-1.2-1c0.5,0.2,1.1,0.4,1.3,0.9C27.4,3,27.3,3.1,27.2,3.1L27.2,3.1z"/>
<path fill="#010101" d="M27.2,7.4c-0.1-0.3-0.2-0.5-0.3-0.8c0.3,0.7,0.8,1.2,1,1.9c0.3,0.8,0.6,1.7,0.8,2.5c0.5,2,0.6,4,0.8,6
	c0.1,0.9,0.3,1.8,0.4,2.6c0.1,1.1-0.1,2.1-0.3,3.1c-0.2,0.8-0.4,1.6-0.8,2.4c-0.1,0.2-0.2,0.4-0.3,0.6c0,0,0,0,0,0
	c-0.2,0-0.3,0.1-0.5,0.1c0.5-0.3,1-1.7,1.1-2.2c0.2-0.8,0.4-1.6,0.5-2.3c0.3-1.8-0.3-3.7-0.4-5.6c-0.1-1.8-0.3-3.6-0.8-5.3
	c-0.3-0.8-0.5-1.7-0.8-2.4C27.4,7.8,27.3,7.6,27.2,7.4z"/>
<path fill="#010101" d="M26.9,6.9c0-0.1-0.1-0.2-0.2-0.4c0,0,0.1,0,0.1,0c0,0,0,0,0,0c0.1,0.3,0.2,0.5,0.3,0.8
	C27.1,7.3,27,7.1,26.9,7C26.9,7,26.9,6.9,26.9,6.9z"/>
<path fill="#010101" d="M26.5,26.1c0.9-0.9,1.4-2.1,1.7-3.2c0.4-1.3,0.7-2.4,0.7-3.7c0-0.1,0-0.1,0-0.2c0,0,0,0,0,0
	c0-0.3,0.1-0.6,0-0.9c0-0.9-0.1-1.9-0.2-2.8c0-0.3-0.1-0.6-0.2-0.9c0,0,0,0,0,0c0-0.4,0-0.9-0.1-1.3c0,0,0,0,0,0
	c0,0.5,0.3,1.1,0.4,1.6c0.1,0.6,0.2,1.3,0.2,1.9c0.1,1.3,0.2,2.6,0,3.9c-0.1,1.2-0.6,2.5-1,3.6c-0.3,0.7-0.7,1.4-1.2,2
	C26.7,26.1,26.6,26.1,26.5,26.1z"/>
<path fill="#F7A9AB" d="M26.8,19.8c0.2,1.4-2,1.9-3,1.8c-0.5,0-1.2-0.1-1.5-0.6c-0.3-0.5-0.3-1,0.1-1.4c0.3-0.4,0.7-0.7,1.3-0.8
	C24.6,18.5,26.6,18.5,26.8,19.8z"/>
<path fill="#010101" d="M26.8,22.1c0-0.1,0.1-0.1,0.1-0.2c0,0,0.1,0,0.1,0c0,0,0,0,0,0.1C26.9,22.1,26.9,22.1,26.8,22.1z"/>
<path fill="#010101" d="M26.7,6.5c0,0-0.1-0.1-0.1-0.1c0.1,0,0.2,0,0.2,0.1c0,0,0,0,0,0C26.8,6.5,26.8,6.5,26.7,6.5z"/>
<path fill="#010101" d="M26.9,7c-0.1-0.1-0.1-0.2-0.2-0.4c0,0,0-0.1,0-0.1c0.1,0.1,0.1,0.2,0.2,0.4C26.9,6.9,26.9,7,26.9,7z"/>
<path fill="#010101" d="M26.7,22.2c0.1-0.1,0.2-0.3,0.2-0.5c0.7-0.5,1.3-1.3,1.6-2c0.2-0.6,0.5-1.9-0.2-2.3c0-0.1,0-0.2,0-0.3
	c0.4,0.2,0.6,0.5,0.6,0.8c0,0.3,0,0.6,0,0.9c0,0,0,0,0,0c0,0.2-0.1,0.3-0.1,0.5c-0.1,0.4-0.3,0.8-0.5,1.1c0,0-0.1,0-0.1,0
	c0,0.1-0.1,0.2-0.1,0.3c-0.3,0.5-0.7,0.9-1.2,1.2c0,0,0,0,0-0.1c0-0.1-0.1-0.1-0.1,0C26.9,22,26.8,22,26.7,22.2
	C26.8,22.1,26.7,22.2,26.7,22.2C26.7,22.2,26.7,22.2,26.7,22.2z"/>
<path fill="#010101" d="M26.5,6.7c0-0.1,0-0.3,0.1-0.3c0,0,0.1,0.1,0.1,0.1c0,0,0,0.1,0,0.1c0,0.1,0.1,0.3,0.2,0.4
	C26.9,7,26.7,7,26.7,7c0,0,0,0-0.1-0.1C26.6,6.8,26.5,6.8,26.5,6.7z"/>
<path fill="#010101" d="M26.7,22.2c-0.1,0.1-0.3-0.1-0.1-0.2c0.1-0.1,0.2-0.1,0.3-0.2C26.8,21.9,26.8,22,26.7,22.2z"/>
<path fill="#010101" d="M26.5,26.4c-0.1,0.1-0.3-0.1-0.2-0.2c0,0,0.1-0.1,0.1-0.2c0.1,0,0.2,0,0.4,0C26.7,26.2,26.6,26.3,26.5,26.4z
	"/>
<path fill="#010101" d="M25,26.6c0.1-0.1,0.3-0.2,0.4-0.4c0.4,0,0.8-0.1,1.1-0.1c0,0.1-0.1,0.1-0.1,0.2c-0.1,0.1,0.1,0.3,0.2,0.2
	c0.1-0.1,0.2-0.2,0.3-0.4c0.4-0.1,0.8-0.1,1.2-0.2c-0.1,0.1,0,0.3,0.1,0.2c0.2-0.1,0.3-0.2,0.4-0.3l0,0c0.4-0.1,0.7-0.2,1-0.4
	c0,0.1-0.1,0.2-0.1,0.3c0,0,0,0.1,0,0.1C28.1,26.3,26.5,26.5,25,26.6C24.9,26.6,25,26.6,25,26.6z"/>
<path fill="#010101" d="M25,26.2c1.6-1.5,2.4-3.4,3.2-5.4c0.1-0.1,0.1-0.2,0.2-0.3c0,0,0,0,0,0c-0.1,0.5-0.4,1-0.6,1.5
	c-0.2,0.6-0.4,1.1-0.6,1.7c-0.5,0.9-1.1,1.7-1.8,2.4C25.2,26.2,25.1,26.2,25,26.2z"/>
<path fill="#010101" d="M25.4,26.2c-0.1,0.1-0.2,0.3-0.4,0.4c0,0,0,0-0.1,0c0,0,0,0-0.1,0c0,0,0,0,0,0c-0.1,0-0.1-0.1,0-0.2
	c0-0.1,0.1-0.1,0.2-0.1C25.1,26.2,25.2,26.2,25.4,26.2z"/>
<path fill="#010101" d="M24.9,26.6C24.9,26.6,24.9,26.6,24.9,26.6C24.9,26.6,24.9,26.6,24.9,26.6z"/>
<path fill="#010101" d="M24,26.2c0.3,0,0.7-0.7,0.8-0.9c0.3-0.3,0.6-0.7,0.8-1.1c0.4-0.6,0.8-1.4,1.1-2.1c0.1,0,0.1-0.1,0.2-0.1
	c-0.3,1.2-1,2.2-1.7,3.2c-0.2,0.3-0.5,0.7-0.8,1c0,0,0,0,0,0C24.4,26.2,24.2,26.2,24,26.2z"/>
<path fill="#010101" d="M24.4,5.2C24.5,5.2,24.5,5.2,24.4,5.2C24.5,5.2,24.4,5.2,24.4,5.2C24.4,5.2,24.4,5.2,24.4,5.2z"/>
<path fill="#010101" d="M25.7,6.1c-0.4-0.3-0.8-0.4-1.3-0.7c0,0,0-0.1,0.1-0.1c0-0.1,0-0.1,0-0.1c0.2,0.1,0.5,0.1,0.7,0.3
	c0.3,0.1,0.5,0.3,0.8,0.5c0.2,0.1,0.5,0.3,0.7,0.5c-0.1,0-0.2,0.1-0.1,0.3c0,0.1,0,0.1,0.1,0.2C26.3,6.6,26,6.4,25.7,6.1z"/>
<path fill="#010101" d="M24.4,4.6c0-0.1,0-0.2,0-0.3c1.6,0.4,3,1.5,3.8,2.9c1.1,1.8,1.3,4,1.7,6.1c0.4,2.3,1.1,4.7,1.2,7
	c0,1,0,2-0.3,2.9c-0.2,0.5-0.4,1.2-0.8,1.7c-0.2,0.1-0.3,0.2-0.5,0.3c0.4-0.8,0.9-1.5,1.1-2.3c0.3-1,0.3-2.1,0.2-3.2
	c-0.2-2.1-0.8-4.3-1.2-6.4c-0.4-2-0.5-4.2-1.6-6C27.1,6.1,26,5.1,24.4,4.6z"/>
<path fill="#010101" d="M24.4,5.5C24.4,5.4,24.4,5.4,24.4,5.5c0-0.1,0-0.2,0-0.3c0,0,0,0,0,0v0C24.5,5.3,24.5,5.3,24.4,5.5
	C24.5,5.4,24.4,5.4,24.4,5.5C24.4,5.5,24.4,5.5,24.4,5.5z"/>
<path fill="#010101" d="M24.2,5.4c-0.1-0.1,0-0.3,0.1-0.2c0,0,0.1,0,0.1,0c0,0.1,0,0.1,0,0.2c0,0,0,0,0,0.1
	C24.3,5.4,24.3,5.4,24.2,5.4z"/>
<path fill="#010101" d="M25.4,1.7c-0.4-0.2-0.7-0.4-1.1-0.5c0.4,0,0.9,0.1,1.1,0.4C25.4,1.6,25.4,1.7,25.4,1.7z"/>
<path fill="#010101" d="M24.4,4.6c0,0-0.1,0-0.1,0c0,0,0,0,0,0c-0.1-0.1,0-0.2,0.1-0.2c0,0,0,0,0,0C24.4,4.4,24.4,4.5,24.4,4.6
	C24.4,4.6,24.4,4.6,24.4,4.6z"/>
<path fill="#010101" d="M24,3.4c1.8-0.2,3.8,1.5,4.7,2.9c1.2,1.9,1.9,4.2,2.4,6.4c0.3,1.3,0.5,2.7,0.7,4c0.2,1.1,0.5,2.2,0.5,3.4
	c0,1.6-0.4,3-1.2,4.2c-0.2,0.2-0.5,0.4-0.8,0.6c1.3-1.4,1.9-3.2,1.8-5.1c-0.1-2.2-0.6-4.5-1.1-6.6c-0.8-3.9-2.4-8.8-6.8-9.6
	C24.1,3.5,24.1,3.5,24,3.4C24.1,3.4,24.1,3.4,24,3.4z"/>
<path fill="#010101" d="M24.3,5.2c-0.1-0.1-0.2,0.1-0.1,0.2c0.1,0,0.1,0.1,0.2,0.1c0,0.1-0.3,0-0.2-0.1c0-0.1,0-0.1,0-0.2
	C24.2,5.1,24.4,5.1,24.3,5.2C24.4,5.2,24.4,5.2,24.3,5.2C24.4,5.2,24.4,5.2,24.3,5.2z"/>
<path fill="#010101" d="M24.1,26.5c-0.2,0-0.2-0.3,0-0.3c0.1,0,0.3,0,0.5,0C24.4,26.3,24.2,26.4,24.1,26.5z"/>
<path fill="#010101" d="M24.1,3.4c0,0,0,0.1,0.1,0.1C24.1,3.5,24.1,3.5,24.1,3.4C24.1,3.5,24.1,3.5,24.1,3.4z"/>
<path fill="#010101" d="M23.9,3.8C24,3.7,24,3.7,24,3.6c0,0,0,0,0-0.1c0,0,0,0,0.1,0c0.1,0.3,0.2,0.5,0.3,0.8c0,0,0,0,0,0
	c-0.1,0-0.2,0.1-0.1,0.2c0,0,0,0,0,0c0,0,0.1,0,0.1,0c0,0,0,0,0,0c0,0.2,0,0.4,0,0.6c-0.1-0.1-0.2-0.1-0.3,0
	C24.2,4.7,24.1,4.2,23.9,3.8z"/>
<path fill="#010101" d="M24,3.5c-0.1,0-0.1-0.1,0-0.1C24,3.4,24.1,3.4,24,3.5C24.1,3.5,24.1,3.5,24,3.5C24.1,3.5,24,3.5,24,3.5z"/>
<path fill="#010101" d="M24,3.4L24,3.4C24.1,3.4,24.1,3.4,24,3.4C24.1,3.4,24,3.4,24,3.4z"/>
<path fill="#010101" d="M23.9,3.8c0-0.1-0.1-0.2-0.2-0.3c0,0,0,0,0,0c0.1-0.1,0.2-0.1,0.2,0c-0.1,0-0.1,0.1,0,0.1c0,0,0,0,0,0
	c0,0,0,0,0,0.1C24,3.7,24,3.7,23.9,3.8z"/>
<path fill="#010101" d="M23.1,26.5c0.2-0.1,0.3-0.2,0.5-0.4c0.1,0,0.3,0,0.5,0c-0.2,0-0.2,0.3,0,0.3c0.2,0,0.3-0.1,0.5-0.3
	c0,0,0,0,0,0c0.1,0,0.3,0,0.4,0c0,0-0.1,0.1-0.2,0.1c-0.1,0.1,0,0.2,0,0.2C24.3,26.6,23.7,26.6,23.1,26.5
	C23.2,26.5,23.1,26.5,23.1,26.5z"/>
<path fill="#010101" d="M23.7,12.3c0.8,0,1.7,0.1,2.4,0.5c0.4,0.2,1.3,0.6,1.1,1.2c0,0,0,0,0,0c0-0.1-0.6-0.5-0.7-0.5
	c-0.3-0.2-0.6-0.4-0.9-0.5c-0.6-0.2-1.2-0.3-1.8-0.4C23.5,12.6,23.5,12.3,23.7,12.3z"/>
<path fill="#010101" d="M23.7,2.9c0-0.1-0.1-0.1-0.1-0.2c1.8-0.5,3.8,0.5,5,2c0,0,0,0,0,0c0,0,0,0,0,0.1c0,0,0,0,0,0
	c0.1,0.1,0.1,0.2,0.2,0.3c0,0,0,0,0,0c-0.8-0.5-1.4-1.2-2.2-1.7C25.7,2.9,24.8,2.7,23.7,2.9z"/>
<path fill="#010101" d="M23.5,16.8c-0.2-0.1-0.4-0.2-0.5-0.5c-0.1-0.2-0.1-0.5,0-0.6c0.4-0.2,0.9-0.3,1.4-0.4c0.2,0,0.3,0,0.5,0
	c0.1,0,0.1,0.1,0.2,0.2c0.3,0.5-0.1,1.1-0.6,1.3c-0.2,0.1-0.4,0.1-0.7,0c0,0,0,0,0,0c0,0,0,0,0,0C23.7,16.9,23.6,16.9,23.5,16.8
	C23.6,16.8,23.6,16.8,23.5,16.8z"/>
<path fill="#010101" d="M23.6,2.9c-0.1,0-0.2-0.2-0.1-0.2h0C23.6,2.8,23.7,2.8,23.6,2.9C23.7,2.9,23.7,2.9,23.6,2.9z"/>
<path fill="#010101" d="M23.1,2.2C24,1.9,24.8,1.6,25.7,2C25.8,2,25.9,2,26,2.1c0.4,0.3,0.8,0.6,1.2,1c0,0-0.1,0-0.1,0
	c-0.3-0.4-1.3-0.9-1.7-1c-0.9-0.2-1.5,0-2.3,0.2C23.1,2.2,23.1,2.2,23.1,2.2z"/>
<path fill="#010101" d="M24.4,15.4c-0.5,0.1-1,0.2-1.4,0.4c0.1-0.3,0.4-0.4,0.7-0.4c0,0,0.1,0,0.1,0c0.3-0.2,0.8-0.2,1.1,0.1
	C24.8,15.4,24.6,15.4,24.4,15.4z"/>
<path fill="#010101" d="M23.6,26.2c-0.2,0.1-0.3,0.3-0.5,0.4c-0.2-0.1-0.1-0.4,0.1-0.4C23.4,26.1,23.5,26.1,23.6,26.2z"/>
<path fill="#010101" d="M23.1,2.5c0.1-0.2,0.4,0,0.3,0.2c0,0,0,0.1,0,0.1C23.2,2.7,23.1,2.6,23.1,2.5C23.1,2.5,23.1,2.5,23.1,2.5z"
	/>
<path fill="#010101" d="M23,2.2L23,2.2c0,0,0.1,0.1,0.1,0.1c0,0-0.1,0-0.1,0C23,2.3,22.9,2.2,23,2.2L23,2.2z"/>
<path fill="#010101" d="M22.5,0.8c0.4-0.2,0.8-0.2,1.2-0.1c0,0,0,0.1,0,0.1c-0.2,0-0.3,0.1-0.5,0.1c0,0,0,0,0,0
	C23,0.8,22.8,0.8,22.5,0.8z"/>
<path fill="#010101" d="M23.3,2.7c0.1-0.2-0.2-0.3-0.3-0.2c0,0,0,0,0,0c-0.1-0.1-0.2-0.2-0.3-0.2c0,0,0,0,0,0c0.1-0.1,0-0.2,0-0.3
	C22.9,2,23,2.1,23,2.2h0c-0.1,0-0.1,0.2,0,0.1c0,0,0.1,0,0.1,0c0.1,0.1,0.3,0.3,0.4,0.4h0c-0.1,0-0.1,0.2,0.1,0.2c0,0,0.1,0,0.1,0
	C23.8,3.1,24,3.2,24,3.4h0c-0.1-0.1-0.2-0.1-0.2,0c0,0,0,0,0,0C23.6,3.2,23.5,3,23.3,2.7C23.3,2.7,23.3,2.7,23.3,2.7z"/>
<path fill="#010101" d="M22.8,2.3c-0.1-0.1-0.1-0.1-0.2-0.2c0,0,0-0.1,0.1-0.1c0,0,0.1-0.1,0.2,0C22.9,2,22.9,2.1,22.8,2.3
	C22.8,2.2,22.8,2.3,22.8,2.3z"/>
<path fill="#010101" d="M22.3,1.6c0.4-0.4,1.1-0.5,1.7-0.4c0.1,0,0.1,0,0.2,0c0,0,0,0,0,0c0.4,0.1,0.7,0.3,1.1,0.5c0,0,0,0,0,0
	c-0.5-0.1-0.8-0.3-1.3-0.3c-0.6,0-1,0.1-1.5,0.3C22.4,1.7,22.4,1.6,22.3,1.6z"/>
<path fill="#010101" d="M22.3,1.8c-0.1,0-0.1-0.1-0.1-0.1c0,0,0,0,0.1,0c0.1,0,0.1,0.1,0.1,0.1C22.4,1.7,22.4,1.7,22.3,1.8z"/>
<path fill="#010101" d="M22.1,1.7c0,0-0.1-0.1-0.1-0.1c0,0,0.1-0.1,0.1-0.1C22.2,1.5,22.3,1.6,22.1,1.7C22.2,1.7,22.2,1.7,22.1,1.7z
	"/>
<path fill="#010101" d="M21.8,16.2c0.6-0.7,1.7-1.1,2.6-1.1c1.1,0,1.8,0.3,2.8,0.9c0,0,0,0,0,0c0,0,0,0,0,0
	c-0.1,0.1-0.2,0.1-0.3,0.2c-0.6-0.4-1.3-0.7-2-0.8c-0.3-0.3-0.7-0.2-1.1-0.1c0,0-0.1,0-0.1,0c-0.3,0-0.6,0.2-0.7,0.4
	c-0.4,0.2-0.7,0.4-1.1,0.6C21.9,16.3,21.9,16.3,21.8,16.2C21.9,16.2,21.8,16.2,21.8,16.2z"/>
<path fill="#010101" d="M21.9,1.3c0,0-0.1,0-0.1-0.1c0.2-0.2,0.4-0.3,0.7-0.4c0,0,0,0,0,0c0.2,0,0.5,0,0.7,0.1c-0.2,0-0.3,0-0.5,0.1
	C22.4,1.1,22.2,1.2,21.9,1.3z"/>
<path fill="#010101" d="M21.9,16.3C21.8,16.4,21.7,16.3,21.9,16.3c-0.1-0.1-0.1-0.1,0-0.1C21.8,16.2,21.9,16.2,21.9,16.3
	C21.9,16.3,21.9,16.3,21.9,16.3C21.9,16.3,21.9,16.3,21.9,16.3z"/>
<path fill="#010101" d="M21.9,1.3c-0.1,0-0.1-0.1-0.1-0.1c0,0,0,0,0,0C21.9,1.2,21.9,1.3,21.9,1.3C21.9,1.3,21.9,1.3,21.9,1.3z"/>
<path fill="#010101" d="M24.5,17.3c-0.9,0-2.2-0.1-2.7-1c0-0.1,0-0.2,0.1-0.2c0,0,0,0,0,0c0,0.1,0,0.1,0.1,0.1c0,0,0.1,0,0.1,0
	c1.1,1.4,3.7,0.8,5-0.1c0,0,0.1,0,0.1,0.1c0.2,0.1,0.3-0.2,0.2-0.3c0.1,0,0.1,0.1,0.2,0.1C27.6,16.9,24.8,17.3,24.5,17.3z"/>
<path fill="#010101" d="M21.4,1.2C21.5,1.2,21.5,1.2,21.4,1.2c0.2-0.1,0.3,0.1,0.2,0.1C21.5,1.3,21.5,1.2,21.4,1.2z"/>
<path fill="#010101" d="M21,0.9c0.1,0,0.2,0,0.3-0.1c0,0,0,0,0,0c0.2,0.1,0.4,0.2,0.5,0.3c0,0,0,0,0,0c0,0,0,0.1,0.1,0.1
	c0,0,0,0,0.1,0c0.1,0.1,0.3,0.2,0.4,0.3c0,0-0.1,0-0.1,0c0,0.1,0,0.1,0.1,0.1c0.1,0,0.1,0,0.2,0c0,0,0.1,0,0.1,0.1
	c0.1,0.1,0.2,0.1,0.3,0.2c0,0-0.1,0-0.2,0c0,0,0,0.1-0.1,0.1c-0.1-0.1-0.2-0.1-0.3-0.2c0,0-0.1-0.1-0.2-0.1c0,0,0,0,0.1-0.1
	c0.1-0.1,0-0.2-0.1-0.1c0,0-0.1,0.1-0.1,0.1c-0.1-0.1-0.3-0.2-0.4-0.3c0.1-0.1,0-0.2-0.1-0.2c0,0,0,0-0.1,0C21.3,1.1,21.1,1,21,0.9z
	"/>
<path fill="#010101" d="M21.3,0.9c-0.1,0-0.2,0-0.3,0.1c0,0,0,0,0,0c0,0,0,0,0-0.1c0,0,0,0,0,0c0,0,0-0.1,0-0.1
	C21.1,0.8,21.2,0.8,21.3,0.9z"/>
<path fill="#010101" d="M21,0.9C21,0.9,21,0.9,21,0.9C21,0.9,21,0.9,21,0.9C21,0.9,21,0.9,21,0.9z"/>
<path fill="#010101" d="M20.9,0.9C20.9,0.9,20.9,0.9,20.9,0.9c0.1,0,0.1,0,0.1,0c0,0,0,0,0,0C21,0.9,21,0.9,20.9,0.9
	C20.9,0.9,20.9,0.9,20.9,0.9z"/>
<path fill="#010101" d="M20.9,0.7C20.9,0.7,20.9,0.7,20.9,0.7c0.1,0,0.1,0,0.1,0C21,0.7,20.9,0.7,20.9,0.7z"/>
<path fill="#010101" d="M21,0.9C21,1,20.9,1,21,0.9C20.9,1,20.9,1,21,0.9C20.9,0.9,20.9,0.9,21,0.9z"/>
<path fill="#010101" d="M20.8,0.7c3.1-0.9,6.6,1.4,8.2,4c1.8,3.1,2.4,6.9,3.1,10.4c0.5,2.8,1.9,6.6-0.5,9c-0.4,0.4-0.8,0.8-1.3,1
	c0.3-0.3,0.5-0.6,0.7-0.8c0.6-0.5,1-1.1,1.3-1.9c0.9-2.6-0.2-5.6-0.7-8.2c-0.5-2.9-1.1-6-2.5-8.6c-0.1-0.2-0.2-0.3-0.3-0.5
	c0,0,0,0,0,0c-0.1-0.1-0.1-0.2-0.2-0.3c0,0,0,0,0,0c0,0,0,0,0-0.1c0,0,0,0,0,0c-0.4-0.6-0.8-1.1-1.3-1.6c0.1,0,0.1-0.1,0.1-0.1
	c-0.2-0.4-0.8-0.7-1.3-0.9c-0.2-0.2-0.5-0.3-0.7-0.4c0,0,0.1-0.1,0-0.1c-0.2-0.3-0.7-0.4-1.1-0.4c0,0,0,0,0,0
	c-0.3-0.1-0.7-0.2-1-0.3c0.2,0,0.3,0,0.5-0.1c0,0,0-0.1,0-0.1c-0.4-0.1-0.8-0.1-1.2,0.1c0,0,0,0,0,0c-0.4,0-0.8,0-1.2,0.1
	c0,0,0,0,0,0c-0.1-0.1-0.2-0.1-0.3-0.1C21,0.7,21,0.7,20.8,0.7C20.9,0.7,20.9,0.7,20.8,0.7C20.9,0.7,20.9,0.7,20.8,0.7
	C20.8,0.7,20.8,0.7,20.8,0.7C20.8,0.7,20.8,0.7,20.8,0.7C20.8,0.7,20.8,0.7,20.8,0.7z"/>
<path fill="#010101" d="M20.9,0.9c0,0,0-0.1,0-0.2c0,0,0,0,0.1,0c0,0,0.1,0,0.1,0.1c0,0,0,0,0,0C21,0.9,21,0.9,20.9,0.9
	C20.9,0.9,20.9,0.9,20.9,0.9C20.9,0.9,20.9,0.9,20.9,0.9C20.9,0.9,20.9,0.9,20.9,0.9z"/>
<path fill="#010101" d="M20.8,0.9C20.8,0.9,20.9,0.9,20.8,0.9C20.9,0.9,20.9,0.9,20.8,0.9c0.1,0,0.1,0,0.2,0c0,0,0,0,0,0
	C20.9,0.9,20.9,0.9,20.8,0.9C20.9,1,20.9,1,20.8,0.9C20.9,1,20.9,1,20.8,0.9C20.8,0.9,20.8,0.9,20.8,0.9z"/>
<path fill="#010101" d="M20.8,0.7C20.8,0.7,20.8,0.7,20.8,0.7C20.8,0.7,20.8,0.7,20.8,0.7C20.8,0.7,20.8,0.7,20.8,0.7z"/>
<path fill="#010101" d="M20.8,0.7C20.8,0.7,20.8,0.7,20.8,0.7C20.8,0.7,20.8,0.7,20.8,0.7C20.9,0.7,20.9,0.7,20.8,0.7
	c0.1,0,0.1,0,0.2,0c0,0,0,0.1,0,0.1c0,0,0,0,0,0C21,0.8,21,0.7,20.8,0.7C20.9,0.7,20.9,0.7,20.8,0.7z"/>
<path fill="#010101" d="M20.8,0.9C20.8,0.9,20.8,0.9,20.8,0.9C20.8,0.9,20.8,0.9,20.8,0.9z"/>
<path fill="#010101" d="M20.8,0.9L20.8,0.9C20.9,0.9,20.9,0.9,20.8,0.9C20.9,0.9,20.8,0.9,20.8,0.9C20.8,0.9,20.8,0.9,20.8,0.9
	C20.8,0.9,20.8,0.9,20.8,0.9z"/>
<path fill="#010101" d="M20.8,0.7C20.8,0.7,20.8,0.7,20.8,0.7C20.8,0.7,20.8,0.7,20.8,0.7L20.8,0.7C20.8,0.7,20.8,0.7,20.8,0.7z"/>
<path fill="#010101" d="M20.8,0.9C20.8,0.9,20.8,0.9,20.8,0.9C20.8,0.9,20.8,0.9,20.8,0.9C20.8,1,20.8,1,20.8,0.9z"/>
<path fill="#010101" d="M20.7,0.9c0,0,0-0.1,0-0.1c0,0,0,0,0,0c0,0,0,0,0,0c0,0,0,0,0,0c0.1,0,0.1,0.1,0,0.2h0
	C20.8,0.9,20.8,0.9,20.7,0.9L20.7,0.9C20.8,0.9,20.8,0.9,20.7,0.9C20.8,0.9,20.8,0.9,20.7,0.9C20.7,0.9,20.7,0.9,20.7,0.9z"/>
<path fill="#010101" d="M20.8,0.9L20.8,0.9C20.8,0.9,20.8,0.9,20.8,0.9L20.8,0.9C20.8,0.9,20.8,0.9,20.8,0.9z"/>
<path fill="#010101" d="M20.8,0.9C20.8,0.9,20.8,0.9,20.8,0.9L20.8,0.9C20.7,0.9,20.7,0.9,20.8,0.9C20.8,0.9,20.8,0.9,20.8,0.9
	L20.8,0.9C20.8,0.9,20.8,0.9,20.8,0.9C20.8,0.9,20.8,0.9,20.8,0.9z"/>
<path fill="#010101" d="M20.7,0.9C20.8,0.9,20.8,0.9,20.7,0.9C20.8,0.9,20.8,0.9,20.7,0.9z"/>
<path fill="#010101" d="M20.8,0.7C20.8,0.7,20.8,0.7,20.8,0.7L20.8,0.7C20.8,0.7,20.8,0.7,20.8,0.7z"/>
<path fill="#010101" d="M20.8,0.7C20.8,0.7,20.8,0.7,20.8,0.7C20.7,0.7,20.7,0.7,20.8,0.7C20.7,0.7,20.8,0.7,20.8,0.7
	C20.8,0.7,20.8,0.7,20.8,0.7z"/>
<path fill="#010101" d="M20.7,0.9C20.8,0.9,20.8,0.9,20.7,0.9C20.8,0.9,20.8,0.9,20.7,0.9L20.7,0.9z"/>
<path fill="#010101" d="M20.8,0.7C20.7,0.7,20.7,0.7,20.8,0.7L20.8,0.7C20.7,0.7,20.7,0.7,20.8,0.7z"/>
<path fill="#010101" d="M20.7,0.9C20.7,0.9,20.7,0.9,20.7,0.9C20.7,0.9,20.7,0.9,20.7,0.9L20.7,0.9C20.7,0.9,20.7,0.9,20.7,0.9z"/>
<path fill="#010101" d="M20.7,0.9c0,0,0-0.1,0-0.1l0,0c0,0,0,0,0,0C20.7,0.8,20.7,0.8,20.7,0.9C20.7,0.9,20.7,0.9,20.7,0.9L20.7,0.9
	z"/>
<path fill="#010101" d="M20.3,0.8c0.1,0,0.2,0,0.3-0.1c0,0,0,0.1,0,0.1C20.6,0.8,20.5,0.8,20.3,0.8z"/>
<path fill="#010101" d="M19.6,1c0.3,0,0.5-0.1,0.8-0.2c0.1,0,0.2,0,0.3,0.1h0c0,0,0,0,0,0C20.6,0.9,20.1,0.9,19.6,1z"/>
<path fill="#010101" d="M19.9,0.7c0.3,0,0.5,0,0.8,0l0,0c0,0,0,0,0,0l0,0c-0.1,0-0.2,0-0.3,0.1C20.2,0.8,20.1,0.8,19.9,0.7z"/>
<path fill="#010101" d="M18.9,21.9c0,0.1-0.2,0.2-0.3,0.1c0-0.1,0.1-0.1,0.1-0.1C18.8,21.9,18.9,21.9,18.9,21.9
	C18.9,21.9,18.9,21.9,18.9,21.9z"/>
<path fill="#010101" d="M18.8,19.7c0.1-0.8,0-1.6,0.1-2.4c0-0.1,0.1-0.1,0.1,0c0.1,1.5-0.1,3-0.2,4.6c0,0-0.1,0-0.1,0
	c-0.1,0-0.1,0.1-0.1,0.1c0,0-0.1-0.1-0.1-0.1C18.6,21.1,18.8,20.4,18.8,19.7z"/>
<path fill="#010101" d="M18.4,22.5c0,0.1,0.2,0.2,0.4,0.1c0.3-0.1,0-0.4-0.1-0.5c-0.1,0-0.1-0.1,0-0.2c0.1,0.1,0.3,0.1,0.3-0.1
	c0,0,0,0,0,0c0.3,0.1,0.5,0.7,0.2,0.9c-0.2,0.1-0.6,0.2-0.8,0C18.4,22.8,18.4,22.6,18.4,22.5C18.4,22.4,18.4,22.4,18.4,22.5
	C18.4,22.4,18.4,22.5,18.4,22.5z"/>
<path fill="#010101" d="M18.2,22.5c0-0.1,0.1-0.1,0.2-0.1l0,0c0,0,0,0,0,0c0.1,0.1,0,0.3,0,0.4c0,0,0,0,0,0
	C18.2,22.8,18.2,22.7,18.2,22.5z"/>
<path fill="#010101" d="M17.3,22.7c0.1,0.4,0.8,0.2,0.8-0.2c0-0.2,0.2-0.3,0.3-0.1c-0.1,0-0.2,0-0.2,0.1c0,0.2,0,0.3,0.2,0.4
	c-0.1,0.2-0.4,0.4-0.6,0.4c-0.2,0-0.5-0.2-0.6-0.4C17.2,22.9,17.3,22.8,17.3,22.7z"/>
<path fill="#010101" d="M17.1,22.9c-0.1-0.1,0-0.2,0.1-0.3c0.1,0,0.1,0,0.1,0.1c0,0,0,0,0,0.1C17.3,22.8,17.2,22.9,17.1,22.9z"/>
<path fill="#010101" d="M16.8,22.3c0.1,0,0-0.2-0.1-0.2c0,0,0,0-0.1,0c0-0.8,0.2-1.7,0.3-2.6c0.1-0.7,0.1-1.5,0.4-2.2
	c0-0.1,0.1,0,0.1,0c0.1,0.7-0.2,1.5-0.2,2.2c0,0.9-0.2,1.7-0.3,2.6C16.9,22.3,16.8,22.4,16.8,22.3C16.7,22.4,16.8,22.3,16.8,22.3z"
	/>
<path fill="#010101" d="M16.7,22.4c-0.1,0-0.1-0.1-0.1-0.2c0,0,0,0,0,0c0,0,0,0,0.1,0C16.8,22.1,16.9,22.3,16.7,22.4
	C16.8,22.3,16.7,22.4,16.7,22.4z"/>
<path fill="#010101" d="M16.4,22.9c-0.3-0.2,0-0.6,0.2-0.7c0,0,0,0,0,0c0,0.1,0,0.1,0.1,0.2c-0.1,0-0.1,0.1-0.1,0.2
	c0,0.1,0.1,0.1,0.2,0.1c0.2,0,0.3-0.2,0.5-0.1c0,0,0.1,0.1,0.1,0.1c0,0,0,0.1,0,0.1c0,0,0,0,0-0.1c0-0.1-0.1-0.1-0.1-0.1
	c-0.1,0.1-0.2,0.2-0.1,0.3C16.8,23,16.5,23,16.4,22.9z"/>
<path fill="#010101" d="M15,24.1c0.9,0.2,1.9,0.5,2.9,0.5c0.8,0,1.6-0.3,2.4-0.4c0.2,0,0.3,0.3,0.1,0.3c-1.7,0.4-3.8,0.9-5.4-0.3
	C14.9,24.2,14.9,24.1,15,24.1z"/>
<path fill="#010101" d="M14.1,16C14,16,14,16,14.1,16c-0.1-0.1,0-0.1,0-0.1c0,0,0,0,0.1-0.1c0,0,0,0,0.1,0c0,0,0.1,0,0.1,0
	C14.4,15.9,14.2,16.1,14.1,16z"/>
<path fill="#010101" d="M23.9,3.8c-0.7,1-1,2.1-1.9,2.9c-0.9,0.9-1.9,1.7-3,2.3c-1.3,0.8-2.7,1.5-4,2.1c-0.2,0.1-0.4,0.2-0.6,0.3
	c-0.8,0.2-1.6,0.4-2.4,0.6c2.2-0.6,4.2-1.6,6.2-2.7C19.6,8.4,21,7.6,22,6.3c0.8-0.9,1.1-1.9,1.7-2.9C23.8,3.6,23.9,3.7,23.9,3.8z"/>
<path fill="#F7A9AB" d="M12.8,19.1c0.2,0.7-0.1,1.3-0.7,1.6c-0.9,0.4-2,0.4-2.9,0c-0.3,0-0.6-0.2-0.8-0.5c-0.2-0.2-0.3-0.5-0.3-0.7
	c0-0.2,0-0.5,0.2-0.7c0,0,0.1-0.1,0.1-0.1C8.7,18.3,9,18,9.5,17.9c0.4-0.1,0.9-0.1,1.3,0C11.5,18,12.5,18.3,12.8,19.1z"/>
<path fill="#010101" d="M12,11.9C11.9,11.9,11.9,11.9,12,11.9C11.9,11.9,12,11.9,12,11.9z"/>
<path fill="#010101" d="M10.6,12.3C10.6,12.3,10.6,12.2,10.6,12.3c0.4-0.2,0.9-0.3,1.3-0.4c0,0,0,0,0,0c0.8-0.1,1.6-0.3,2.4-0.6
	C13.2,11.9,11.9,12.3,10.6,12.3z"/>
<path fill="#010101" d="M9.7,12.2c1.3-0.2,2.7-0.9,3.7-1.6c1.1-0.7,2.3-1.3,3.5-2c1.4-0.8,2.8-1.8,4-3c0.9-0.9,1.5-2,2.2-3.1
	c0.1,0.1,0.2,0.2,0.2,0.3c-0.9,1.5-1.8,2.8-3.1,3.9c-1.1,0.9-2.4,1.8-3.6,2.5c-0.8,0.5-1.6,0.8-2.4,1.3c-0.7,0.4-1.4,0.9-2.1,1.2
	c-0.4,0.2-0.9,0.3-1.4,0.5C10.3,12.1,10,12.2,9.7,12.2z"/>
<path fill="#010101" d="M10.3,15.6c0.5-0.5,0.8-0.5,1.1-0.6c0.1,0,0.2-0.1,0.3-0.1c0.2,0,0.5,0.1,0.7,0.3c-0.4-0.1-0.8,0-1.3,0
	C10.8,15.4,10.5,15.4,10.3,15.6z"/>
<path fill="#010101" d="M10.2,15.9l0.1-0.4c0,0,0,0,0,0c0.3-0.1,0.5-0.2,0.8-0.3c0.5-0.1,0.9-0.1,1.3,0c0,0,0.1,0.1,0.1,0.1
	c0.3,0.6-0.2,1.2-0.8,1.3c-0.1,0-0.3,0-0.4,0c-0.1,0-0.1,0-0.2,0C10.7,16.7,10.2,16.5,10.2,15.9C10.2,16,10.2,16,10.2,15.9z"/>
<path fill="#010101" d="M22.2,7.2c0.6-0.6,1.6-1.2,1.9-2c0,0,0-0.1,0.1-0.1c0,0.1,0,0.1,0,0.2c0,0.2,0.2,0.2,0.2,0.1c0,0,0,0,0,0
	c-0.5,1.2-2,2.2-3,2.9c-1.4,1-3,1.8-4.7,2.4c-2.4,0.9-5.5,1.9-8.2,1.6c0.7,0.1,1.4-0.1,2.1-0.3c0.4,0,0.8-0.1,1.3-0.2
	c-0.4,0.1-0.9,0.2-1.3,0.3c0,0,0,0.1,0,0.1c1.3,0,2.5-0.5,3.7-1c0.8-0.2,1.6-0.5,2.3-0.8c1.3-0.5,2.7-1.1,3.9-1.9
	C21.1,8.2,21.7,7.7,22.2,7.2z"/>
<path fill="#010101" d="M9.1,16c0.7-0.7,1.6-1,2.5-1.1c1.1-0.1,1.8,0.2,2.6,0.9c0,0,0,0,0,0c0,0-0.1,0-0.1,0c0,0,0,0-0.1,0
	c0,0,0,0-0.1,0.1c0,0-0.1,0.1-0.1,0.1c-0.5-0.4-1-0.6-1.6-0.7c-0.2-0.2-0.5-0.3-0.7-0.3c-0.1,0-0.2,0-0.3,0.1
	c-0.2,0-0.5,0.1-1.1,0.6c0,0,0,0,0,0c-0.3,0.1-0.6,0.3-0.9,0.6c0,0-0.1-0.1-0.1-0.1C9.2,16,9.2,16,9.1,16z"/>
<path fill="#010101" d="M9.4,25.1c-0.1-0.1-0.2-0.2-0.3-0.4c0,0,0,0,0,0C9.4,24.7,9.5,25,9.4,25.1z"/>
<path fill="#010101" d="M9.3,16.2C9.1,16.4,9,16.2,9.1,16c0,0,0,0,0,0c0,0,0.1,0,0.1,0.1C9.3,16.1,9.3,16.1,9.3,16.2
	C9.3,16.2,9.3,16.2,9.3,16.2z"/>
<path fill="#010101" d="M9.1,16.2C9,16.1,9.1,16,9.1,16c0,0,0,0,0,0c-0.1,0.1,0,0.3,0.2,0.2c0,0,0.1-0.1,0.1-0.1
	c0.4,0.4,1.1,0.5,1.7,0.5c0.1,0,0.1,0,0.2,0c0.2,0,0.4,0,0.6,0c0.8,0,1.5-0.3,2.1-0.8c0,0,0.1,0,0.1,0.1c0.2,0.1,0.3-0.1,0.2-0.2
	c0.1,0,0.2,0.2,0,0.3c-0.9,0.8-2,1-3.3,0.9C10.4,16.9,9.5,16.8,9.1,16.2z"/>
<path fill="#010101" d="M8.8,13.5c0.7-0.9,2.3-0.9,3.3-0.9c0.2,0,0.2,0.3,0,0.3c-1,0-2.4,0-3.2,0.8C8.8,13.7,8.7,13.5,8.8,13.5z"/>
<path fill="#010101" d="M8.1,12c0.9-0.2,1.7-0.8,2.4-1.3c0.6-0.4,1.3-0.8,1.9-1.2c1.3-0.8,2.5-1.6,3.8-2.4c1.4-0.8,2.9-1.5,4.1-2.7
	c0.5-0.5,1-1,1.5-1.5c0.3-0.3,0.5-0.7,0.8-1c0.1,0.1,0.1,0.1,0.2,0.2c-0.5,0.6-0.9,1.1-1.5,1.7c-0.5,0.5-1,1-1.5,1.4
	c-1.2,0.9-2.5,1.5-3.8,2.3c-1.6,0.9-3.2,2-4.8,3c-0.8,0.5-1.6,1.1-2.5,1.5C8.5,12.1,8.3,12.1,8.1,12z"/>
<path fill="#010101" d="M8.6,24.9c-0.1,0-0.1,0-0.2-0.1c0.1,0,0.2,0,0.3,0C8.7,24.8,8.7,24.9,8.6,24.9z"/>
<path fill="#010101" d="M8.5,12.4C8.5,12.4,8.5,12.4,8.5,12.4L8.5,12.4c-0.1,0-0.1-0.2,0-0.2c0.4,0,0.8,0,1.2-0.1
	c0.3,0,0.6,0,0.9-0.1C10,12.3,9.2,12.5,8.5,12.4z"/>
<path fill="#010101" d="M8.1,12.3C8,12.3,7.9,12.1,8,12h0c0.2,0,0.4,0.1,0.6,0.1C8.5,12.2,8.3,12.3,8.1,12.3z"/>
<path fill="#010101" d="M7.5,11.9c0.3-0.4,0.6-0.8,1-1.2c1.8-1.8,4.1-3.3,6.3-4.5c2.5-1.4,4.9-2.8,7.2-4.6c0,0,0.1,0.1,0.1,0.1
	c-3.9,3.1-8.6,4.9-12.4,8.2c-0.7,0.6-1.4,1.3-1.9,2C7.7,12,7.6,11.9,7.5,11.9z"/>
<path fill="#010101" d="M8.5,12.4c-0.3,0-0.6-0.1-0.8-0.2c0.1-0.1,0.1-0.2,0.2-0.2c0.1,0,0.2,0,0.2,0h0c-0.2,0-0.1,0.3,0.1,0.3
	c0.2,0,0.4-0.1,0.6-0.2c0.3,0,0.7,0.1,1,0c-0.4,0.1-0.8,0.1-1.2,0.1C8.4,12.2,8.4,12.4,8.5,12.4z"/>
<path fill="#010101" d="M7.7,25c-0.1-0.1-0.1-0.1-0.2-0.2c0.1,0,0.2,0,0.3,0c0,0,0,0,0,0C7.9,24.9,7.8,25,7.7,25z"/>
<path fill="#010101" d="M7.5,12.5c0-0.1,0-0.2,0-0.3c0.1,0,0.1,0,0.2,0C7.6,12.3,7.5,12.4,7.5,12.5z"/>
<path fill="#010101" d="M7.5,12.1C7.5,12,7.5,12,7.5,12.1c-0.1-0.1-0.1-0.1,0-0.2c0.1,0,0.2,0.1,0.3,0.1c-0.1,0.1-0.1,0.2-0.2,0.2
	c0,0-0.1,0-0.2,0C7.5,12.2,7.5,12.1,7.5,12.1z"/>
<path fill="#010101" d="M7.5,20.6c0-0.1,0-0.1,0-0.2c0,0,0.1,0.1,0.2,0.1c0.2,0.1,0.1,0.3-0.1,0.3c0,0,0,0,0-0.1
	C7.5,20.7,7.5,20.7,7.5,20.6C7.5,20.7,7.5,20.7,7.5,20.6C7.5,20.7,7.5,20.7,7.5,20.6C7.5,20.7,7.5,20.7,7.5,20.6z"/>
<path fill="#010101" d="M7.9,23.6c-0.3-0.9-0.7-1.9-0.5-2.9c0.1,0,0.1,0,0.2,0.1h0c0,0.3-0.1,0.6,0,0.8c0.1,0.5,0.3,1,0.5,1.5
	c0,0.1,0.4,1.4,0.7,1.5c0.1,0,0.1,0.1,0.1,0.1c-0.1,0-0.2,0-0.3,0C8.1,24.5,8,23.9,7.9,23.6z"/>
<path fill="#010101" d="M19.5,27.9c4.1-1.2,6.8-4.4,7.9-8.4c0.5-2,0.8-4.1,0.7-6.2C28,11,27.3,9,26.6,6.9c0,0,0,0,0.1,0.1
	C26.7,7,26.9,7,26.9,7c0.1,0.1,0.2,0.3,0.3,0.4c0.6,1.8,1.1,3.6,1.2,5.5c0,0,0,0,0,0c-0.1,0.4,0,0.8,0.1,1.3c0,0,0,0,0,0
	c0,1,0,2-0.2,2.9c0,0,0,0,0,0c-0.1-0.1-0.2,0.2-0.1,0.2c0,0,0,0,0.1,0c-0.1,0.8-0.3,1.7-0.6,2.5c-0.2,0.6-0.5,1.2-0.7,1.8
	c-0.1,0.1-0.2,0.2-0.3,0.2c-0.1,0.1,0,0.3,0.1,0.2c-0.8,1.5-1.8,2.9-3.1,4c-0.1,0-0.2,0-0.3,0c-0.2,0-0.3,0.3-0.1,0.4
	c-1.1,0.8-2.4,1.5-3.9,1.8c-3.5,0.8-7.4,0-9.6-2.9c-0.1-0.1-0.1-0.2-0.2-0.3c0.1-0.1,0-0.4-0.2-0.4c0,0,0,0,0,0
	c-0.8-1.2-1.3-2.5-1.6-3.9c0.2,0,0.3-0.2,0.1-0.3c-0.1,0-0.1-0.1-0.2-0.1C7.1,19,7,17.6,7.1,16.1c0,0,0.1,0,0.1-0.1
	c0.2,0,0.1-0.2-0.1-0.2c0,0,0,0,0,0c0-0.2,0-0.4,0-0.6c0.1-0.3,0.2-0.5,0.3-0.8c0-0.1-0.1-0.1-0.1-0.1c0,0.1,0,0.1-0.1,0.2
	c0-0.4,0-0.7,0.1-1.1c0.1-0.1,0.1-0.2,0.2-0.3c0-0.1,0-0.1-0.1-0.1c0,0-0.1,0.1-0.1,0.1c0-0.2,0-0.3,0-0.5c0.1-0.1,0.1-0.2,0.2-0.3
	C7.3,16.3,7,20.6,9.1,24C11.3,27.6,15.5,29,19.5,27.9z"/>
<path fill="#010101" d="M7,23.1c-0.1-1-0.3-1.9-0.3-2.8c0.1,0.1,0.1,0.2,0.2,0.3c0.1,0.6,0.2,1.3,0.3,1.9c0.1,0.8,0,1.8,0.6,2.4
	c-0.1,0-0.2,0-0.3,0C7.1,24.3,7.1,23.6,7,23.1z"/>
<path fill="#010101" d="M9.3,25.2c-1.3,0.1-3,0-4.5-0.4c0.1,0,0.1-0.1,0.1-0.1c0-0.1-0.1-0.2-0.1-0.3c0.1,0,0.2,0.1,0.4,0.1
	c0,0.1,0.1,0.2,0.1,0.3c0,0.2,0.3,0.1,0.3-0.1c0,0,0-0.1,0-0.1c0.4,0.1,0.9,0.2,1.3,0.2c0,0.1,0.1,0.1,0.1,0.2
	c0.1,0.1,0.3,0,0.2-0.1c0,0,0,0,0-0.1c0.2,0,0.3,0,0.5,0c0,0.1,0.1,0.1,0.2,0.2c0.1,0.1,0.3,0,0.2-0.1c0,0,0,0,0,0
	c0.2,0,0.4,0,0.6,0c0,0.1,0.1,0.1,0.2,0.1c0.1,0,0.1,0,0.2-0.1c0.1,0,0.3,0,0.4,0c0.1,0.1,0.2,0.2,0.3,0.4
	C9.4,25.1,9.3,25.2,9.3,25.2z"/>
<path fill="#010101" d="M3.3,23.8c-0.1-0.5-0.2-1-0.2-1.5c0-0.7,0.1-1.4,0.3-2c0.3-1.4,0.6-2.8,1.2-4.2c0.8-2,1.8-3.9,3.1-5.6
	c1.7-2.1,3.7-3.9,6.1-5.2c2.5-1.4,5.2-2.6,7.8-4.1c0.1,0,0.1,0.1,0.2,0.1l0,0C17.2,4,12,5.7,8.5,9.7c-1.8,2.1-3.2,4.5-4,7.1
	c-0.4,1.3-0.7,2.5-1,3.8c-0.1,0.8-0.3,1.5-0.2,2.3c0,0.3,0.2,0.7,0.2,1C3.5,23.9,3.4,23.8,3.3,23.8z"/>
<path fill="#010101" d="M2.2,23.1c-0.4-2.5,0.6-5.4,1.5-7.7c0.9-2.5,2.1-4.9,3.7-7c1.6-2.2,3.8-4,6.2-5.3c1.9-1,4-1.6,6.1-2.1
	c0.5,0,1-0.1,1.1-0.1c0,0,0,0,0,0c-2.7,0.6-5.3,1.3-7.7,2.7C11,4.9,9,6.5,7.5,8.5C6,10.6,4.8,13,3.9,15.5c-0.9,2.4-2,5.2-1.5,7.8
	c0,0,0,0.1,0,0.1C2.4,23.2,2.3,23.1,2.2,23.1z"/>
<path fill="#010101" d="M1.3,22.2c-0.3-2.6,0.8-5.4,1.6-7.7c0.8-2.3,1.9-4.3,3.4-6.2C8,6.1,10,3.9,12.4,2.5c2.4-1.4,4.9-1.6,7.5-1.7
	c0,0,0,0,0,0c0.1,0,0.3,0,0.4,0.1c-0.3,0.1-0.5,0.1-0.8,0.2c-1.1,0.1-2.5,0.2-2.7,0.2c-1.4,0.2-2.7,0.5-3.8,1.2
	c-2.2,1.3-4.1,3.1-5.7,5.1c-2,2.5-3.5,5.3-4.5,8.3c-0.7,2.2-1.6,4.6-1.1,6.9C1.5,22.5,1.4,22.4,1.3,22.2z"/>
<path fill="#010101" d="M4.6,24.7c-1.8-0.5-3.3-1.4-4-3c-1.5-3.2,0.7-7,2.1-9.9c3.2-6.5,10-14.3,18.2-11.2c0,0,0,0,0,0
	c-0.3,0-0.5,0-0.8,0c0,0,0,0,0,0c-3.5-0.5-6.7-0.1-9.7,2c-2.9,2.1-5,5-6.7,8.1c-0.9,1.7-1.8,3.5-2.4,5.4C0.6,17.7,0,19.4,0.6,21
	c0.2,0.5,0.4,0.9,0.7,1.3c0,0.2,0.1,0.5,0.1,0.7c0,0.2,0.3,0.1,0.3,0c0-0.1,0-0.2,0-0.2c0.1,0.1,0.3,0.3,0.5,0.4c0,0.1,0,0.1,0,0.2
	c0,0.2,0.3,0.1,0.3,0c0.3,0.2,0.5,0.4,0.8,0.5c0,0.1,0,0.2,0,0.3c0,0.1,0.1,0.1,0.2,0.1c0.1,0,0.2-0.1,0.2-0.2v0c0,0,0,0,0-0.1
	c0.3,0.1,0.5,0.2,0.8,0.3C4.4,24.4,4.5,24.6,4.6,24.7C4.5,24.7,4.5,24.7,4.6,24.7z"/>
</svg>
